<svg width="667" height="500" viewBox="0 0 667 500" fill="none" xmlns="http://www.w3.org/2000/svg">
<path fill-rule="evenodd" clip-rule="evenodd" d="M354.326 422.189C277.233 435.672 217.923 514.221 141.63 497.738C66.3808 481.48 4.09119 412.007 0.125427 345.662C-3.82806 279.523 87.0227 241.477 122.802 182.759C149.889 138.306 139.937 79.3095 183.084 45.4033C228.137 9.99957 293.39 -3.64984 354.326 0.820374C412.508 5.0885 456.063 42.4411 505.493 69.0548C559.419 98.09 631.325 112.973 656.002 163.248C681.083 214.348 657.535 273.583 630.626 323.996C605.921 370.278 566.939 413.445 512.036 432.956C462.108 450.7 407.292 412.926 354.326 422.189Z" fill="white"/>
</svg>
